<svg width="191" height="65" viewBox="0 0 191 65" fill="none" xmlns="http://www.w3.org/2000/svg">
<rect width="191" height="65" fill="white"/>
<g filter="url(#filter0_d_16_11)">
<mask id="path-2-outside-1_16_11" maskUnits="userSpaceOnUse" x="6" y="13" width="179" height="38" fill="black">
<rect fill="white" x="6" y="13" width="179" height="38"/>
<path d="M23.6406 16.6973C26.7057 16.6973 29.4056 17.3418 31.7402 18.6309C34.0892 19.9056 35.9225 21.7031 37.2402 24.0234C38.5723 26.3294 39.2383 29.0293 39.2383 32.123C39.2383 35.2598 38.6009 38.0384 37.3262 40.459C36.0514 42.8652 34.2467 44.7559 31.9121 46.1309C29.5918 47.4915 26.8346 48.1719 23.6406 48.1719C20.4036 48.1719 17.6178 47.513 15.2832 46.1953C12.9486 44.8633 11.151 43.0013 9.89062 40.6094C8.63021 38.2174 8 35.4245 8 32.2305C8 29.1654 8.66602 26.4655 9.99805 24.1309C11.3444 21.7962 13.1921 19.9772 15.541 18.6738C17.89 17.3561 20.5898 16.6973 23.6406 16.6973ZM28.3672 38.7617C28.3672 36.4987 28.1452 34.3001 27.7012 32.166C27.5866 31.6217 27.4004 30.8984 27.1426 29.9961C26.8848 29.0938 26.5553 28.1413 26.1543 27.1387C25.7676 26.1361 25.3164 25.1836 24.8008 24.2812C24.2995 23.3789 23.7409 22.6484 23.125 22.0898C22.5234 21.5169 21.8789 21.2305 21.1914 21.2305C20.4609 21.2305 19.9382 21.5312 19.623 22.1328C19.3223 22.7344 19.1361 23.4219 19.0645 24.1953C19.0072 24.9544 18.9785 25.5918 18.9785 26.1074C18.9785 27.8835 19.1217 29.6595 19.4082 31.4355C19.709 33.1973 20.1673 34.916 20.7832 36.5918C20.9551 37.0788 21.2129 37.709 21.5566 38.4824C21.9147 39.2559 22.3372 40.0293 22.8242 40.8027C23.3112 41.5762 23.834 42.2279 24.3926 42.7578C24.9655 43.2878 25.5527 43.5527 26.1543 43.5527C26.8848 43.5527 27.4004 43.2591 27.7012 42.6719C28.0163 42.0846 28.2025 41.4115 28.2598 40.6523C28.3314 39.8932 28.3672 39.263 28.3672 38.7617Z"/>
<path d="M51.6992 28.2988C51.2122 28.2988 50.7754 28.4062 50.3887 28.6211C50.002 28.8359 49.8086 29.2227 49.8086 29.7812C49.8086 30.2396 49.916 30.5905 50.1309 30.834C50.3457 31.0775 50.6536 31.2852 51.0547 31.457C51.4844 31.6432 51.9355 31.7793 52.4082 31.8652C52.8809 31.9512 53.3392 32.0443 53.7832 32.1445C55.1009 32.431 56.3327 32.918 57.4785 33.6055C58.6243 34.2786 59.5482 35.1523 60.25 36.2266C60.9661 37.2865 61.3242 38.5469 61.3242 40.0078C61.3242 41.9701 60.8802 43.5312 59.9922 44.6914C59.1042 45.8516 57.9225 46.6823 56.4473 47.1836C54.9863 47.6849 53.3822 47.9355 51.6348 47.9355C51.1908 47.9355 50.5749 47.8783 49.7871 47.7637C49.0137 47.6491 48.4408 47.4915 48.0684 47.291H48.0469C47.9036 47.2194 47.6673 47.1406 47.3379 47.0547C47.0085 46.9688 46.765 46.9258 46.6074 46.9258C46.1634 46.9258 45.7839 47.0977 45.4688 47.4414C45.1536 47.7995 44.7669 47.9785 44.3086 47.9785C43.6927 47.9785 43.2057 47.778 42.8477 47.377C42.5039 46.9759 42.2389 46.5033 42.0527 45.959C41.8809 45.4004 41.7233 44.8848 41.5801 44.4121C41.4798 44.0111 41.3652 43.6172 41.2363 43.2305C41.1074 42.8294 41.043 42.4212 41.043 42.0059C41.043 41.2611 41.2435 40.6595 41.6445 40.2012C42.0456 39.7428 42.6257 39.5137 43.3848 39.5137C44.1296 39.5137 44.7454 39.6784 45.2324 40.0078C45.7194 40.3229 46.1491 40.7168 46.5215 41.1895C46.9082 41.6621 47.2949 42.1419 47.6816 42.6289C48.0827 43.1016 48.5625 43.5026 49.1211 43.832C49.6797 44.1471 50.3815 44.3047 51.2266 44.3047C51.8138 44.3047 52.2578 44.1328 52.5586 43.7891C52.8594 43.431 53.0098 42.9727 53.0098 42.4141C53.0098 41.612 52.7949 41.0964 52.3652 40.8672C51.9355 40.638 51.3841 40.459 50.7109 40.3301C49.4792 40.0866 48.3047 39.8001 47.1875 39.4707C46.0846 39.1413 45.1035 38.6901 44.2441 38.1172C43.3991 37.5443 42.7259 36.7852 42.2246 35.8398C41.7376 34.8945 41.4941 33.6771 41.4941 32.1875C41.4941 30.4258 41.974 28.9935 42.9336 27.8906C43.8932 26.7734 45.1107 25.9499 46.5859 25.4199C48.0755 24.89 49.5866 24.625 51.1191 24.625C51.7064 24.625 52.2793 24.6465 52.8379 24.6895C53.4108 24.7324 53.9766 24.847 54.5352 25.0332C54.6068 25.0475 54.7715 25.1048 55.0293 25.2051C55.3014 25.3053 55.5664 25.4056 55.8242 25.5059C56.082 25.5918 56.2109 25.6348 56.2109 25.6348C56.6836 25.6348 57.0846 25.4701 57.4141 25.1406C57.7578 24.7969 58.166 24.625 58.6387 24.625C59.2402 24.625 59.6842 24.8613 59.9707 25.334C60.2572 25.7923 60.4577 26.3294 60.5723 26.9453C60.7012 27.5612 60.8014 28.084 60.873 28.5137C60.9303 28.8431 60.9876 29.1797 61.0449 29.5234C61.1022 29.8529 61.1309 30.1823 61.1309 30.5117C61.1309 31.0846 60.9948 31.6289 60.7227 32.1445C60.4648 32.6458 59.9993 32.8965 59.3262 32.8965C58.653 32.8965 58.0586 32.6673 57.543 32.209C57.0273 31.7363 56.5117 31.1992 55.9961 30.5977C55.4805 29.9961 54.8861 29.4661 54.2129 29.0078C53.5397 28.5352 52.7018 28.2988 51.6992 28.2988Z"/>
<path d="M84.2051 33.1113C84.2051 34.3861 83.8255 35.3529 83.0664 36.0117C82.3216 36.6706 81.3333 37 80.1016 37H71.4434C71.7728 38.2318 72.36 39.2702 73.2051 40.1152C74.0501 40.946 75.2676 41.3613 76.8574 41.3613C77.4876 41.3613 78.1107 41.2324 78.7266 40.9746C79.3568 40.7025 79.944 40.3874 80.4883 40.0293C81.0469 39.6712 81.5339 39.3633 81.9492 39.1055C82.3646 38.8333 82.6797 38.6973 82.8945 38.6973C83.3099 38.6973 83.6107 38.8477 83.7969 39.1484C83.9831 39.4349 84.0762 39.7643 84.0762 40.1367C84.0762 41.4401 83.7682 42.5859 83.1523 43.5742C82.5508 44.5482 81.7487 45.3574 80.7461 46.002C79.7578 46.6465 78.6693 47.1263 77.4805 47.4414C76.306 47.7708 75.1458 47.9355 74 47.9355C71.7513 47.9355 69.7676 47.4701 68.0488 46.5391C66.3301 45.6081 64.9837 44.3047 64.0098 42.6289C63.0501 40.9388 62.5703 38.9551 62.5703 36.6777C62.5703 34.2428 63.0358 32.123 63.9668 30.3184C64.9121 28.5137 66.2656 27.1172 68.0273 26.1289C69.7891 25.1263 71.9017 24.625 74.3652 24.625C76.0697 24.625 77.6667 24.9473 79.1562 25.5918C80.6602 26.2363 81.8776 27.1888 82.8086 28.4492C83.7396 29.7096 84.2051 31.2637 84.2051 33.1113ZM71.0566 33.6914C71.0566 33.849 71.0566 34.0065 71.0566 34.1641H73.291C73.8353 34.1641 74.2077 34.0423 74.4082 33.7988C74.6087 33.541 74.709 33.1543 74.709 32.6387C74.709 32.2949 74.666 31.8438 74.5801 31.2852C74.4941 30.7266 74.3223 30.2253 74.0645 29.7812C73.821 29.3372 73.4629 29.1152 72.9902 29.1152C72.5605 29.1152 72.2168 29.2943 71.959 29.6523C71.7012 29.9961 71.5078 30.4329 71.3789 30.9629C71.25 31.4785 71.1641 31.987 71.1211 32.4883C71.0781 32.9896 71.0566 33.3906 71.0566 33.6914Z"/>
<path d="M98.8574 47.3125H88.6953C88.0794 47.3125 87.5566 47.1549 87.127 46.8398C86.7116 46.5104 86.5039 46.0163 86.5039 45.3574C86.5039 44.8704 86.6113 44.4837 86.8262 44.1973C87.0553 43.8965 87.3561 43.6172 87.7285 43.3594C88.1296 43.0729 88.416 42.8509 88.5879 42.6934C88.7598 42.5215 88.8672 42.3138 88.9102 42.0703C88.9531 41.8268 88.9746 41.4616 88.9746 40.9746V23.7012C88.9746 23.1712 88.9316 22.7917 88.8457 22.5625C88.7741 22.3333 88.6237 22.1615 88.3945 22.0469C88.1797 21.918 87.8503 21.7461 87.4062 21.5312C87.0482 21.3594 86.7546 21.1302 86.5254 20.8438C86.2962 20.5573 86.1816 20.2135 86.1816 19.8125C86.1816 19.2396 86.375 18.7956 86.7617 18.4805C87.1484 18.151 87.5781 17.9004 88.0508 17.7285L93.0996 15.8594C93.6868 15.6445 94.2812 15.4512 94.8828 15.2793C95.4844 15.0931 96.0931 15 96.709 15C97.3105 15 97.7832 15.1934 98.127 15.5801C98.4707 15.9668 98.6426 16.4538 98.6426 17.041V34.5078L103.498 30.6406C103.613 30.5547 103.734 30.4544 103.863 30.3398C104.007 30.2253 104.078 30.0964 104.078 29.9531C104.078 29.6953 103.906 29.4805 103.562 29.3086C103.219 29.1367 102.875 28.9076 102.531 28.6211C102.188 28.3203 102.016 27.862 102.016 27.2461C102.016 26.5729 102.223 26.0859 102.639 25.7852C103.068 25.4701 103.591 25.3125 104.207 25.3125H113.08C113.696 25.3125 114.212 25.4701 114.627 25.7852C115.057 26.0859 115.271 26.5729 115.271 27.2461C115.271 28.0625 115.007 28.6283 114.477 28.9434C113.961 29.2441 113.367 29.4805 112.693 29.6523C111.891 29.8529 111.168 30.0749 110.523 30.3184C109.879 30.5618 109.227 30.9557 108.568 31.5L107.322 32.5098L114.412 41.5332C114.727 41.9199 115.143 42.3138 115.658 42.7148C116.188 43.1016 116.668 43.5169 117.098 43.9609C117.527 44.4049 117.742 44.9062 117.742 45.4648C117.742 46.1094 117.527 46.582 117.098 46.8828C116.668 47.1693 116.16 47.3125 115.572 47.3125H105.281C104.694 47.3125 104.221 47.1335 103.863 46.7754C103.505 46.4173 103.326 45.9447 103.326 45.3574C103.326 44.7988 103.484 44.3835 103.799 44.1113C104.128 43.8392 104.451 43.6172 104.766 43.4453C105.081 43.2591 105.238 43.0371 105.238 42.7793C105.238 42.5358 105.16 42.321 105.002 42.1348C104.859 41.9486 104.715 41.7767 104.572 41.6191L101.135 37.5156L98.6426 39.5352V40.8457C98.6426 41.304 98.6641 41.7552 98.707 42.1992C98.75 42.6432 98.972 43.0299 99.373 43.3594C99.7884 43.6745 100.132 43.9323 100.404 44.1328C100.676 44.3333 100.812 44.7415 100.812 45.3574C100.812 46.6608 100.161 47.3125 98.8574 47.3125Z"/>
<path d="M148.637 40.1797C148.637 41.6406 148.314 42.8366 147.67 43.7676C147.025 44.6986 146.173 45.4219 145.113 45.9375C144.068 46.4531 142.929 46.8112 141.697 47.0117C140.465 47.2122 139.255 47.3125 138.066 47.3125H121.223C120.449 47.3125 119.826 47.1263 119.354 46.7539C118.895 46.3815 118.666 45.7871 118.666 44.9707C118.666 44.2546 118.809 43.7174 119.096 43.3594C119.396 42.987 119.74 42.6862 120.127 42.457C120.514 42.2279 120.85 41.9629 121.137 41.6621C121.438 41.347 121.588 40.8887 121.588 40.2871V24.6035C121.588 23.9733 121.438 23.5078 121.137 23.207C120.85 22.9062 120.514 22.6484 120.127 22.4336C119.74 22.2044 119.396 21.9108 119.096 21.5527C118.809 21.1947 118.666 20.6504 118.666 19.9199C118.666 19.1035 118.895 18.5091 119.354 18.1367C119.826 17.7643 120.449 17.5781 121.223 17.5781H134.35C135.753 17.5781 137.193 17.7285 138.668 18.0293C140.158 18.3301 141.533 18.8242 142.793 19.5117C144.053 20.1992 145.07 21.1159 145.844 22.2617C146.632 23.4076 147.025 24.8255 147.025 26.5156C147.025 28.3633 146.46 29.8171 145.328 30.877C144.211 31.9225 142.879 32.6745 141.332 33.1328C142.578 33.4049 143.753 33.8346 144.855 34.4219C145.973 34.9948 146.882 35.7539 147.584 36.6992C148.286 37.6445 148.637 38.8047 148.637 40.1797ZM132.287 21.8965H132.158V32.1445H132.932C134.55 32.1445 135.66 31.679 136.262 30.748C136.878 29.8171 137.186 28.6139 137.186 27.1387C137.186 25.5345 136.785 24.2598 135.982 23.3145C135.18 22.3691 133.949 21.8965 132.287 21.8965ZM138.281 39.7285C138.281 38.5827 137.945 37.6374 137.271 36.8926C136.613 36.1335 135.689 35.7539 134.5 35.7539H132.158V39.4277C132.158 40.5163 132.423 41.39 132.953 42.0488C133.483 42.6934 134.314 43.0156 135.445 43.0156C136.491 43.0156 137.221 42.7077 137.637 42.0918C138.066 41.4759 138.281 40.6882 138.281 39.7285Z"/>
<path d="M182.604 33.9062C182.604 34.5365 182.46 35.0163 182.174 35.3457C181.887 35.6608 181.558 35.9186 181.186 36.1191C180.813 36.3197 180.484 36.5488 180.197 36.8066C179.911 37.0501 179.768 37.4154 179.768 37.9023V45.7656C179.768 47.3698 178.98 48.1719 177.404 48.1719C176.817 48.1719 176.301 47.9928 175.857 47.6348C175.428 47.291 175.012 46.9473 174.611 46.6035C174.225 46.2454 173.809 46.0664 173.365 46.0664C172.95 46.0664 172.499 46.1738 172.012 46.3887C171.539 46.6035 171.109 46.7969 170.723 46.9688C169.892 47.3555 169.054 47.6491 168.209 47.8496C167.364 48.0501 166.476 48.1504 165.545 48.1504C162.322 48.1504 159.587 47.4987 157.338 46.1953C155.089 44.8776 153.378 43.0443 152.203 40.6953C151.029 38.332 150.441 35.5749 150.441 32.4238C150.441 30.1895 150.857 28.1198 151.688 26.2148C152.518 24.2956 153.671 22.627 155.146 21.209C156.622 19.791 158.326 18.6882 160.26 17.9004C162.208 17.0983 164.285 16.6973 166.49 16.6973C167.335 16.6973 168.173 16.7546 169.004 16.8691C169.835 16.9694 170.651 17.1413 171.453 17.3848C171.868 17.4993 172.27 17.6139 172.656 17.7285C173.057 17.8431 173.473 17.9004 173.902 17.9004C174.275 17.9004 174.611 17.8073 174.912 17.6211C175.227 17.4206 175.535 17.2272 175.836 17.041C176.151 16.8548 176.495 16.7617 176.867 16.7617C177.598 16.7617 178.07 16.9909 178.285 17.4492C178.514 17.9076 178.715 18.4232 178.887 18.9961C179.016 19.4115 179.188 19.9486 179.402 20.6074C179.632 21.2663 179.861 21.9681 180.09 22.7129C180.333 23.4434 180.534 24.1309 180.691 24.7754C180.849 25.4199 180.928 25.9284 180.928 26.3008C180.928 26.9883 180.656 27.5039 180.111 27.8477C179.567 28.1771 178.987 28.3418 178.371 28.3418C177.741 28.3418 177.268 28.1842 176.953 27.8691C176.638 27.554 176.323 27.153 176.008 26.666C175.292 25.5775 174.597 24.6178 173.924 23.7871C173.251 22.9421 172.456 22.2832 171.539 21.8105C170.637 21.3379 169.469 21.1016 168.037 21.1016C166.662 21.1016 165.523 21.4095 164.621 22.0254C163.719 22.627 163.003 23.429 162.473 24.4316C161.957 25.4199 161.585 26.5013 161.355 27.6758C161.141 28.8359 161.033 29.9818 161.033 31.1133C161.033 31.944 161.083 32.7891 161.184 33.6484C161.298 34.4935 161.47 35.3171 161.699 36.1191C162.014 37.1934 162.487 38.2318 163.117 39.2344C163.762 40.2227 164.557 41.0319 165.502 41.6621C166.447 42.2923 167.529 42.6074 168.746 42.6074C169.262 42.6074 169.67 42.5215 169.971 42.3496C170.271 42.1634 170.422 41.7839 170.422 41.2109V37.9023C170.422 37.5299 170.35 37.2793 170.207 37.1504C170.064 37.0215 169.849 36.8711 169.562 36.6992C169.19 36.4701 168.782 36.248 168.338 36.0332C167.908 35.804 167.543 35.5319 167.242 35.2168C166.941 34.8874 166.791 34.4577 166.791 33.9277C166.791 33.1257 167.042 32.5599 167.543 32.2305C168.044 31.8867 168.66 31.7148 169.391 31.7148H180.025C180.756 31.7148 181.365 31.8796 181.852 32.209C182.353 32.5384 182.604 33.1042 182.604 33.9062Z"/>
</mask>
<path d="M23.6406 16.6973C26.7057 16.6973 29.4056 17.3418 31.7402 18.6309C34.0892 19.9056 35.9225 21.7031 37.2402 24.0234C38.5723 26.3294 39.2383 29.0293 39.2383 32.123C39.2383 35.2598 38.6009 38.0384 37.3262 40.459C36.0514 42.8652 34.2467 44.7559 31.9121 46.1309C29.5918 47.4915 26.8346 48.1719 23.6406 48.1719C20.4036 48.1719 17.6178 47.513 15.2832 46.1953C12.9486 44.8633 11.151 43.0013 9.89062 40.6094C8.63021 38.2174 8 35.4245 8 32.2305C8 29.1654 8.66602 26.4655 9.99805 24.1309C11.3444 21.7962 13.1921 19.9772 15.541 18.6738C17.89 17.3561 20.5898 16.6973 23.6406 16.6973ZM28.3672 38.7617C28.3672 36.4987 28.1452 34.3001 27.7012 32.166C27.5866 31.6217 27.4004 30.8984 27.1426 29.9961C26.8848 29.0938 26.5553 28.1413 26.1543 27.1387C25.7676 26.1361 25.3164 25.1836 24.8008 24.2812C24.2995 23.3789 23.7409 22.6484 23.125 22.0898C22.5234 21.5169 21.8789 21.2305 21.1914 21.2305C20.4609 21.2305 19.9382 21.5312 19.623 22.1328C19.3223 22.7344 19.1361 23.4219 19.0645 24.1953C19.0072 24.9544 18.9785 25.5918 18.9785 26.1074C18.9785 27.8835 19.1217 29.6595 19.4082 31.4355C19.709 33.1973 20.1673 34.916 20.7832 36.5918C20.9551 37.0788 21.2129 37.709 21.5566 38.4824C21.9147 39.2559 22.3372 40.0293 22.8242 40.8027C23.3112 41.5762 23.834 42.2279 24.3926 42.7578C24.9655 43.2878 25.5527 43.5527 26.1543 43.5527C26.8848 43.5527 27.4004 43.2591 27.7012 42.6719C28.0163 42.0846 28.2025 41.4115 28.2598 40.6523C28.3314 39.8932 28.3672 39.263 28.3672 38.7617Z" fill="#C4B5FD"/>
<path d="M51.6992 28.2988C51.2122 28.2988 50.7754 28.4062 50.3887 28.6211C50.002 28.8359 49.8086 29.2227 49.8086 29.7812C49.8086 30.2396 49.916 30.5905 50.1309 30.834C50.3457 31.0775 50.6536 31.2852 51.0547 31.457C51.4844 31.6432 51.9355 31.7793 52.4082 31.8652C52.8809 31.9512 53.3392 32.0443 53.7832 32.1445C55.1009 32.431 56.3327 32.918 57.4785 33.6055C58.6243 34.2786 59.5482 35.1523 60.25 36.2266C60.9661 37.2865 61.3242 38.5469 61.3242 40.0078C61.3242 41.9701 60.8802 43.5312 59.9922 44.6914C59.1042 45.8516 57.9225 46.6823 56.4473 47.1836C54.9863 47.6849 53.3822 47.9355 51.6348 47.9355C51.1908 47.9355 50.5749 47.8783 49.7871 47.7637C49.0137 47.6491 48.4408 47.4915 48.0684 47.291H48.0469C47.9036 47.2194 47.6673 47.1406 47.3379 47.0547C47.0085 46.9688 46.765 46.9258 46.6074 46.9258C46.1634 46.9258 45.7839 47.0977 45.4688 47.4414C45.1536 47.7995 44.7669 47.9785 44.3086 47.9785C43.6927 47.9785 43.2057 47.778 42.8477 47.377C42.5039 46.9759 42.2389 46.5033 42.0527 45.959C41.8809 45.4004 41.7233 44.8848 41.5801 44.4121C41.4798 44.0111 41.3652 43.6172 41.2363 43.2305C41.1074 42.8294 41.043 42.4212 41.043 42.0059C41.043 41.2611 41.2435 40.6595 41.6445 40.2012C42.0456 39.7428 42.6257 39.5137 43.3848 39.5137C44.1296 39.5137 44.7454 39.6784 45.2324 40.0078C45.7194 40.3229 46.1491 40.7168 46.5215 41.1895C46.9082 41.6621 47.2949 42.1419 47.6816 42.6289C48.0827 43.1016 48.5625 43.5026 49.1211 43.832C49.6797 44.1471 50.3815 44.3047 51.2266 44.3047C51.8138 44.3047 52.2578 44.1328 52.5586 43.7891C52.8594 43.431 53.0098 42.9727 53.0098 42.4141C53.0098 41.612 52.7949 41.0964 52.3652 40.8672C51.9355 40.638 51.3841 40.459 50.7109 40.3301C49.4792 40.0866 48.3047 39.8001 47.1875 39.4707C46.0846 39.1413 45.1035 38.6901 44.2441 38.1172C43.3991 37.5443 42.7259 36.7852 42.2246 35.8398C41.7376 34.8945 41.4941 33.6771 41.4941 32.1875C41.4941 30.4258 41.974 28.9935 42.9336 27.8906C43.8932 26.7734 45.1107 25.9499 46.5859 25.4199C48.0755 24.89 49.5866 24.625 51.1191 24.625C51.7064 24.625 52.2793 24.6465 52.8379 24.6895C53.4108 24.7324 53.9766 24.847 54.5352 25.0332C54.6068 25.0475 54.7715 25.1048 55.0293 25.2051C55.3014 25.3053 55.5664 25.4056 55.8242 25.5059C56.082 25.5918 56.2109 25.6348 56.2109 25.6348C56.6836 25.6348 57.0846 25.4701 57.4141 25.1406C57.7578 24.7969 58.166 24.625 58.6387 24.625C59.2402 24.625 59.6842 24.8613 59.9707 25.334C60.2572 25.7923 60.4577 26.3294 60.5723 26.9453C60.7012 27.5612 60.8014 28.084 60.873 28.5137C60.9303 28.8431 60.9876 29.1797 61.0449 29.5234C61.1022 29.8529 61.1309 30.1823 61.1309 30.5117C61.1309 31.0846 60.9948 31.6289 60.7227 32.1445C60.4648 32.6458 59.9993 32.8965 59.3262 32.8965C58.653 32.8965 58.0586 32.6673 57.543 32.209C57.0273 31.7363 56.5117 31.1992 55.9961 30.5977C55.4805 29.9961 54.8861 29.4661 54.2129 29.0078C53.5397 28.5352 52.7018 28.2988 51.6992 28.2988Z" fill="#C4B5FD"/>
<path d="M84.2051 33.1113C84.2051 34.3861 83.8255 35.3529 83.0664 36.0117C82.3216 36.6706 81.3333 37 80.1016 37H71.4434C71.7728 38.2318 72.36 39.2702 73.2051 40.1152C74.0501 40.946 75.2676 41.3613 76.8574 41.3613C77.4876 41.3613 78.1107 41.2324 78.7266 40.9746C79.3568 40.7025 79.944 40.3874 80.4883 40.0293C81.0469 39.6712 81.5339 39.3633 81.9492 39.1055C82.3646 38.8333 82.6797 38.6973 82.8945 38.6973C83.3099 38.6973 83.6107 38.8477 83.7969 39.1484C83.9831 39.4349 84.0762 39.7643 84.0762 40.1367C84.0762 41.4401 83.7682 42.5859 83.1523 43.5742C82.5508 44.5482 81.7487 45.3574 80.7461 46.002C79.7578 46.6465 78.6693 47.1263 77.4805 47.4414C76.306 47.7708 75.1458 47.9355 74 47.9355C71.7513 47.9355 69.7676 47.4701 68.0488 46.5391C66.3301 45.6081 64.9837 44.3047 64.0098 42.6289C63.0501 40.9388 62.5703 38.9551 62.5703 36.6777C62.5703 34.2428 63.0358 32.123 63.9668 30.3184C64.9121 28.5137 66.2656 27.1172 68.0273 26.1289C69.7891 25.1263 71.9017 24.625 74.3652 24.625C76.0697 24.625 77.6667 24.9473 79.1562 25.5918C80.6602 26.2363 81.8776 27.1888 82.8086 28.4492C83.7396 29.7096 84.2051 31.2637 84.2051 33.1113ZM71.0566 33.6914C71.0566 33.849 71.0566 34.0065 71.0566 34.1641H73.291C73.8353 34.1641 74.2077 34.0423 74.4082 33.7988C74.6087 33.541 74.709 33.1543 74.709 32.6387C74.709 32.2949 74.666 31.8438 74.5801 31.2852C74.4941 30.7266 74.3223 30.2253 74.0645 29.7812C73.821 29.3372 73.4629 29.1152 72.9902 29.1152C72.5605 29.1152 72.2168 29.2943 71.959 29.6523C71.7012 29.9961 71.5078 30.4329 71.3789 30.9629C71.25 31.4785 71.1641 31.987 71.1211 32.4883C71.0781 32.9896 71.0566 33.3906 71.0566 33.6914Z" fill="#C4B5FD"/>
<path d="M98.8574 47.3125H88.6953C88.0794 47.3125 87.5566 47.1549 87.127 46.8398C86.7116 46.5104 86.5039 46.0163 86.5039 45.3574C86.5039 44.8704 86.6113 44.4837 86.8262 44.1973C87.0553 43.8965 87.3561 43.6172 87.7285 43.3594C88.1296 43.0729 88.416 42.8509 88.5879 42.6934C88.7598 42.5215 88.8672 42.3138 88.9102 42.0703C88.9531 41.8268 88.9746 41.4616 88.9746 40.9746V23.7012C88.9746 23.1712 88.9316 22.7917 88.8457 22.5625C88.7741 22.3333 88.6237 22.1615 88.3945 22.0469C88.1797 21.918 87.8503 21.7461 87.4062 21.5312C87.0482 21.3594 86.7546 21.1302 86.5254 20.8438C86.2962 20.5573 86.1816 20.2135 86.1816 19.8125C86.1816 19.2396 86.375 18.7956 86.7617 18.4805C87.1484 18.151 87.5781 17.9004 88.0508 17.7285L93.0996 15.8594C93.6868 15.6445 94.2812 15.4512 94.8828 15.2793C95.4844 15.0931 96.0931 15 96.709 15C97.3105 15 97.7832 15.1934 98.127 15.5801C98.4707 15.9668 98.6426 16.4538 98.6426 17.041V34.5078L103.498 30.6406C103.613 30.5547 103.734 30.4544 103.863 30.3398C104.007 30.2253 104.078 30.0964 104.078 29.9531C104.078 29.6953 103.906 29.4805 103.562 29.3086C103.219 29.1367 102.875 28.9076 102.531 28.6211C102.188 28.3203 102.016 27.862 102.016 27.2461C102.016 26.5729 102.223 26.0859 102.639 25.7852C103.068 25.4701 103.591 25.3125 104.207 25.3125H113.08C113.696 25.3125 114.212 25.4701 114.627 25.7852C115.057 26.0859 115.271 26.5729 115.271 27.2461C115.271 28.0625 115.007 28.6283 114.477 28.9434C113.961 29.2441 113.367 29.4805 112.693 29.6523C111.891 29.8529 111.168 30.0749 110.523 30.3184C109.879 30.5618 109.227 30.9557 108.568 31.5L107.322 32.5098L114.412 41.5332C114.727 41.9199 115.143 42.3138 115.658 42.7148C116.188 43.1016 116.668 43.5169 117.098 43.9609C117.527 44.4049 117.742 44.9062 117.742 45.4648C117.742 46.1094 117.527 46.582 117.098 46.8828C116.668 47.1693 116.16 47.3125 115.572 47.3125H105.281C104.694 47.3125 104.221 47.1335 103.863 46.7754C103.505 46.4173 103.326 45.9447 103.326 45.3574C103.326 44.7988 103.484 44.3835 103.799 44.1113C104.128 43.8392 104.451 43.6172 104.766 43.4453C105.081 43.2591 105.238 43.0371 105.238 42.7793C105.238 42.5358 105.16 42.321 105.002 42.1348C104.859 41.9486 104.715 41.7767 104.572 41.6191L101.135 37.5156L98.6426 39.5352V40.8457C98.6426 41.304 98.6641 41.7552 98.707 42.1992C98.75 42.6432 98.972 43.0299 99.373 43.3594C99.7884 43.6745 100.132 43.9323 100.404 44.1328C100.676 44.3333 100.812 44.7415 100.812 45.3574C100.812 46.6608 100.161 47.3125 98.8574 47.3125Z" fill="#C4B5FD"/>
<path d="M148.637 40.1797C148.637 41.6406 148.314 42.8366 147.67 43.7676C147.025 44.6986 146.173 45.4219 145.113 45.9375C144.068 46.4531 142.929 46.8112 141.697 47.0117C140.465 47.2122 139.255 47.3125 138.066 47.3125H121.223C120.449 47.3125 119.826 47.1263 119.354 46.7539C118.895 46.3815 118.666 45.7871 118.666 44.9707C118.666 44.2546 118.809 43.7174 119.096 43.3594C119.396 42.987 119.74 42.6862 120.127 42.457C120.514 42.2279 120.85 41.9629 121.137 41.6621C121.438 41.347 121.588 40.8887 121.588 40.2871V24.6035C121.588 23.9733 121.438 23.5078 121.137 23.207C120.85 22.9062 120.514 22.6484 120.127 22.4336C119.74 22.2044 119.396 21.9108 119.096 21.5527C118.809 21.1947 118.666 20.6504 118.666 19.9199C118.666 19.1035 118.895 18.5091 119.354 18.1367C119.826 17.7643 120.449 17.5781 121.223 17.5781H134.35C135.753 17.5781 137.193 17.7285 138.668 18.0293C140.158 18.3301 141.533 18.8242 142.793 19.5117C144.053 20.1992 145.07 21.1159 145.844 22.2617C146.632 23.4076 147.025 24.8255 147.025 26.5156C147.025 28.3633 146.46 29.8171 145.328 30.877C144.211 31.9225 142.879 32.6745 141.332 33.1328C142.578 33.4049 143.753 33.8346 144.855 34.4219C145.973 34.9948 146.882 35.7539 147.584 36.6992C148.286 37.6445 148.637 38.8047 148.637 40.1797ZM132.287 21.8965H132.158V32.1445H132.932C134.55 32.1445 135.66 31.679 136.262 30.748C136.878 29.8171 137.186 28.6139 137.186 27.1387C137.186 25.5345 136.785 24.2598 135.982 23.3145C135.18 22.3691 133.949 21.8965 132.287 21.8965ZM138.281 39.7285C138.281 38.5827 137.945 37.6374 137.271 36.8926C136.613 36.1335 135.689 35.7539 134.5 35.7539H132.158V39.4277C132.158 40.5163 132.423 41.39 132.953 42.0488C133.483 42.6934 134.314 43.0156 135.445 43.0156C136.491 43.0156 137.221 42.7077 137.637 42.0918C138.066 41.4759 138.281 40.6882 138.281 39.7285Z" fill="#C4B5FD"/>
<path d="M182.604 33.9062C182.604 34.5365 182.46 35.0163 182.174 35.3457C181.887 35.6608 181.558 35.9186 181.186 36.1191C180.813 36.3197 180.484 36.5488 180.197 36.8066C179.911 37.0501 179.768 37.4154 179.768 37.9023V45.7656C179.768 47.3698 178.98 48.1719 177.404 48.1719C176.817 48.1719 176.301 47.9928 175.857 47.6348C175.428 47.291 175.012 46.9473 174.611 46.6035C174.225 46.2454 173.809 46.0664 173.365 46.0664C172.95 46.0664 172.499 46.1738 172.012 46.3887C171.539 46.6035 171.109 46.7969 170.723 46.9688C169.892 47.3555 169.054 47.6491 168.209 47.8496C167.364 48.0501 166.476 48.1504 165.545 48.1504C162.322 48.1504 159.587 47.4987 157.338 46.1953C155.089 44.8776 153.378 43.0443 152.203 40.6953C151.029 38.332 150.441 35.5749 150.441 32.4238C150.441 30.1895 150.857 28.1198 151.688 26.2148C152.518 24.2956 153.671 22.627 155.146 21.209C156.622 19.791 158.326 18.6882 160.26 17.9004C162.208 17.0983 164.285 16.6973 166.49 16.6973C167.335 16.6973 168.173 16.7546 169.004 16.8691C169.835 16.9694 170.651 17.1413 171.453 17.3848C171.868 17.4993 172.27 17.6139 172.656 17.7285C173.057 17.8431 173.473 17.9004 173.902 17.9004C174.275 17.9004 174.611 17.8073 174.912 17.6211C175.227 17.4206 175.535 17.2272 175.836 17.041C176.151 16.8548 176.495 16.7617 176.867 16.7617C177.598 16.7617 178.07 16.9909 178.285 17.4492C178.514 17.9076 178.715 18.4232 178.887 18.9961C179.016 19.4115 179.188 19.9486 179.402 20.6074C179.632 21.2663 179.861 21.9681 180.09 22.7129C180.333 23.4434 180.534 24.1309 180.691 24.7754C180.849 25.4199 180.928 25.9284 180.928 26.3008C180.928 26.9883 180.656 27.5039 180.111 27.8477C179.567 28.1771 178.987 28.3418 178.371 28.3418C177.741 28.3418 177.268 28.1842 176.953 27.8691C176.638 27.554 176.323 27.153 176.008 26.666C175.292 25.5775 174.597 24.6178 173.924 23.7871C173.251 22.9421 172.456 22.2832 171.539 21.8105C170.637 21.3379 169.469 21.1016 168.037 21.1016C166.662 21.1016 165.523 21.4095 164.621 22.0254C163.719 22.627 163.003 23.429 162.473 24.4316C161.957 25.4199 161.585 26.5013 161.355 27.6758C161.141 28.8359 161.033 29.9818 161.033 31.1133C161.033 31.944 161.083 32.7891 161.184 33.6484C161.298 34.4935 161.47 35.3171 161.699 36.1191C162.014 37.1934 162.487 38.2318 163.117 39.2344C163.762 40.2227 164.557 41.0319 165.502 41.6621C166.447 42.2923 167.529 42.6074 168.746 42.6074C169.262 42.6074 169.67 42.5215 169.971 42.3496C170.271 42.1634 170.422 41.7839 170.422 41.2109V37.9023C170.422 37.5299 170.35 37.2793 170.207 37.1504C170.064 37.0215 169.849 36.8711 169.562 36.6992C169.19 36.4701 168.782 36.248 168.338 36.0332C167.908 35.804 167.543 35.5319 167.242 35.2168C166.941 34.8874 166.791 34.4577 166.791 33.9277C166.791 33.1257 167.042 32.5599 167.543 32.2305C168.044 31.8867 168.66 31.7148 169.391 31.7148H180.025C180.756 31.7148 181.365 31.8796 181.852 32.209C182.353 32.5384 182.604 33.1042 182.604 33.9062Z" fill="#C4B5FD"/>
<path d="M23.6406 16.6973C26.7057 16.6973 29.4056 17.3418 31.7402 18.6309C34.0892 19.9056 35.9225 21.7031 37.2402 24.0234C38.5723 26.3294 39.2383 29.0293 39.2383 32.123C39.2383 35.2598 38.6009 38.0384 37.3262 40.459C36.0514 42.8652 34.2467 44.7559 31.9121 46.1309C29.5918 47.4915 26.8346 48.1719 23.6406 48.1719C20.4036 48.1719 17.6178 47.513 15.2832 46.1953C12.9486 44.8633 11.151 43.0013 9.89062 40.6094C8.63021 38.2174 8 35.4245 8 32.2305C8 29.1654 8.66602 26.4655 9.99805 24.1309C11.3444 21.7962 13.1921 19.9772 15.541 18.6738C17.89 17.3561 20.5898 16.6973 23.6406 16.6973ZM28.3672 38.7617C28.3672 36.4987 28.1452 34.3001 27.7012 32.166C27.5866 31.6217 27.4004 30.8984 27.1426 29.9961C26.8848 29.0938 26.5553 28.1413 26.1543 27.1387C25.7676 26.1361 25.3164 25.1836 24.8008 24.2812C24.2995 23.3789 23.7409 22.6484 23.125 22.0898C22.5234 21.5169 21.8789 21.2305 21.1914 21.2305C20.4609 21.2305 19.9382 21.5312 19.623 22.1328C19.3223 22.7344 19.1361 23.4219 19.0645 24.1953C19.0072 24.9544 18.9785 25.5918 18.9785 26.1074C18.9785 27.8835 19.1217 29.6595 19.4082 31.4355C19.709 33.1973 20.1673 34.916 20.7832 36.5918C20.9551 37.0788 21.2129 37.709 21.5566 38.4824C21.9147 39.2559 22.3372 40.0293 22.8242 40.8027C23.3112 41.5762 23.834 42.2279 24.3926 42.7578C24.9655 43.2878 25.5527 43.5527 26.1543 43.5527C26.8848 43.5527 27.4004 43.2591 27.7012 42.6719C28.0163 42.0846 28.2025 41.4115 28.2598 40.6523C28.3314 39.8932 28.3672 39.263 28.3672 38.7617Z" stroke="#09090B" stroke-width="4" mask="url(#path-2-outside-1_16_11)"/>
<path d="M51.6992 28.2988C51.2122 28.2988 50.7754 28.4062 50.3887 28.6211C50.002 28.8359 49.8086 29.2227 49.8086 29.7812C49.8086 30.2396 49.916 30.5905 50.1309 30.834C50.3457 31.0775 50.6536 31.2852 51.0547 31.457C51.4844 31.6432 51.9355 31.7793 52.4082 31.8652C52.8809 31.9512 53.3392 32.0443 53.7832 32.1445C55.1009 32.431 56.3327 32.918 57.4785 33.6055C58.6243 34.2786 59.5482 35.1523 60.25 36.2266C60.9661 37.2865 61.3242 38.5469 61.3242 40.0078C61.3242 41.9701 60.8802 43.5312 59.9922 44.6914C59.1042 45.8516 57.9225 46.6823 56.4473 47.1836C54.9863 47.6849 53.3822 47.9355 51.6348 47.9355C51.1908 47.9355 50.5749 47.8783 49.7871 47.7637C49.0137 47.6491 48.4408 47.4915 48.0684 47.291H48.0469C47.9036 47.2194 47.6673 47.1406 47.3379 47.0547C47.0085 46.9688 46.765 46.9258 46.6074 46.9258C46.1634 46.9258 45.7839 47.0977 45.4688 47.4414C45.1536 47.7995 44.7669 47.9785 44.3086 47.9785C43.6927 47.9785 43.2057 47.778 42.8477 47.377C42.5039 46.9759 42.2389 46.5033 42.0527 45.959C41.8809 45.4004 41.7233 44.8848 41.5801 44.4121C41.4798 44.0111 41.3652 43.6172 41.2363 43.2305C41.1074 42.8294 41.043 42.4212 41.043 42.0059C41.043 41.2611 41.2435 40.6595 41.6445 40.2012C42.0456 39.7428 42.6257 39.5137 43.3848 39.5137C44.1296 39.5137 44.7454 39.6784 45.2324 40.0078C45.7194 40.3229 46.1491 40.7168 46.5215 41.1895C46.9082 41.6621 47.2949 42.1419 47.6816 42.6289C48.0827 43.1016 48.5625 43.5026 49.1211 43.832C49.6797 44.1471 50.3815 44.3047 51.2266 44.3047C51.8138 44.3047 52.2578 44.1328 52.5586 43.7891C52.8594 43.431 53.0098 42.9727 53.0098 42.4141C53.0098 41.612 52.7949 41.0964 52.3652 40.8672C51.9355 40.638 51.3841 40.459 50.7109 40.3301C49.4792 40.0866 48.3047 39.8001 47.1875 39.4707C46.0846 39.1413 45.1035 38.6901 44.2441 38.1172C43.3991 37.5443 42.7259 36.7852 42.2246 35.8398C41.7376 34.8945 41.4941 33.6771 41.4941 32.1875C41.4941 30.4258 41.974 28.9935 42.9336 27.8906C43.8932 26.7734 45.1107 25.9499 46.5859 25.4199C48.0755 24.89 49.5866 24.625 51.1191 24.625C51.7064 24.625 52.2793 24.6465 52.8379 24.6895C53.4108 24.7324 53.9766 24.847 54.5352 25.0332C54.6068 25.0475 54.7715 25.1048 55.0293 25.2051C55.3014 25.3053 55.5664 25.4056 55.8242 25.5059C56.082 25.5918 56.2109 25.6348 56.2109 25.6348C56.6836 25.6348 57.0846 25.4701 57.4141 25.1406C57.7578 24.7969 58.166 24.625 58.6387 24.625C59.2402 24.625 59.6842 24.8613 59.9707 25.334C60.2572 25.7923 60.4577 26.3294 60.5723 26.9453C60.7012 27.5612 60.8014 28.084 60.873 28.5137C60.9303 28.8431 60.9876 29.1797 61.0449 29.5234C61.1022 29.8529 61.1309 30.1823 61.1309 30.5117C61.1309 31.0846 60.9948 31.6289 60.7227 32.1445C60.4648 32.6458 59.9993 32.8965 59.3262 32.8965C58.653 32.8965 58.0586 32.6673 57.543 32.209C57.0273 31.7363 56.5117 31.1992 55.9961 30.5977C55.4805 29.9961 54.8861 29.4661 54.2129 29.0078C53.5397 28.5352 52.7018 28.2988 51.6992 28.2988Z" stroke="#09090B" stroke-width="4" mask="url(#path-2-outside-1_16_11)"/>
<path d="M84.2051 33.1113C84.2051 34.3861 83.8255 35.3529 83.0664 36.0117C82.3216 36.6706 81.3333 37 80.1016 37H71.4434C71.7728 38.2318 72.36 39.2702 73.2051 40.1152C74.0501 40.946 75.2676 41.3613 76.8574 41.3613C77.4876 41.3613 78.1107 41.2324 78.7266 40.9746C79.3568 40.7025 79.944 40.3874 80.4883 40.0293C81.0469 39.6712 81.5339 39.3633 81.9492 39.1055C82.3646 38.8333 82.6797 38.6973 82.8945 38.6973C83.3099 38.6973 83.6107 38.8477 83.7969 39.1484C83.9831 39.4349 84.0762 39.7643 84.0762 40.1367C84.0762 41.4401 83.7682 42.5859 83.1523 43.5742C82.5508 44.5482 81.7487 45.3574 80.7461 46.002C79.7578 46.6465 78.6693 47.1263 77.4805 47.4414C76.306 47.7708 75.1458 47.9355 74 47.9355C71.7513 47.9355 69.7676 47.4701 68.0488 46.5391C66.3301 45.6081 64.9837 44.3047 64.0098 42.6289C63.0501 40.9388 62.5703 38.9551 62.5703 36.6777C62.5703 34.2428 63.0358 32.123 63.9668 30.3184C64.9121 28.5137 66.2656 27.1172 68.0273 26.1289C69.7891 25.1263 71.9017 24.625 74.3652 24.625C76.0697 24.625 77.6667 24.9473 79.1562 25.5918C80.6602 26.2363 81.8776 27.1888 82.8086 28.4492C83.7396 29.7096 84.2051 31.2637 84.2051 33.1113ZM71.0566 33.6914C71.0566 33.849 71.0566 34.0065 71.0566 34.1641H73.291C73.8353 34.1641 74.2077 34.0423 74.4082 33.7988C74.6087 33.541 74.709 33.1543 74.709 32.6387C74.709 32.2949 74.666 31.8438 74.5801 31.2852C74.4941 30.7266 74.3223 30.2253 74.0645 29.7812C73.821 29.3372 73.4629 29.1152 72.9902 29.1152C72.5605 29.1152 72.2168 29.2943 71.959 29.6523C71.7012 29.9961 71.5078 30.4329 71.3789 30.9629C71.25 31.4785 71.1641 31.987 71.1211 32.4883C71.0781 32.9896 71.0566 33.3906 71.0566 33.6914Z" stroke="#09090B" stroke-width="4" mask="url(#path-2-outside-1_16_11)"/>
<path d="M98.8574 47.3125H88.6953C88.0794 47.3125 87.5566 47.1549 87.127 46.8398C86.7116 46.5104 86.5039 46.0163 86.5039 45.3574C86.5039 44.8704 86.6113 44.4837 86.8262 44.1973C87.0553 43.8965 87.3561 43.6172 87.7285 43.3594C88.1296 43.0729 88.416 42.8509 88.5879 42.6934C88.7598 42.5215 88.8672 42.3138 88.9102 42.0703C88.9531 41.8268 88.9746 41.4616 88.9746 40.9746V23.7012C88.9746 23.1712 88.9316 22.7917 88.8457 22.5625C88.7741 22.3333 88.6237 22.1615 88.3945 22.0469C88.1797 21.918 87.8503 21.7461 87.4062 21.5312C87.0482 21.3594 86.7546 21.1302 86.5254 20.8438C86.2962 20.5573 86.1816 20.2135 86.1816 19.8125C86.1816 19.2396 86.375 18.7956 86.7617 18.4805C87.1484 18.151 87.5781 17.9004 88.0508 17.7285L93.0996 15.8594C93.6868 15.6445 94.2812 15.4512 94.8828 15.2793C95.4844 15.0931 96.0931 15 96.709 15C97.3105 15 97.7832 15.1934 98.127 15.5801C98.4707 15.9668 98.6426 16.4538 98.6426 17.041V34.5078L103.498 30.6406C103.613 30.5547 103.734 30.4544 103.863 30.3398C104.007 30.2253 104.078 30.0964 104.078 29.9531C104.078 29.6953 103.906 29.4805 103.562 29.3086C103.219 29.1367 102.875 28.9076 102.531 28.6211C102.188 28.3203 102.016 27.862 102.016 27.2461C102.016 26.5729 102.223 26.0859 102.639 25.7852C103.068 25.4701 103.591 25.3125 104.207 25.3125H113.08C113.696 25.3125 114.212 25.4701 114.627 25.7852C115.057 26.0859 115.271 26.5729 115.271 27.2461C115.271 28.0625 115.007 28.6283 114.477 28.9434C113.961 29.2441 113.367 29.4805 112.693 29.6523C111.891 29.8529 111.168 30.0749 110.523 30.3184C109.879 30.5618 109.227 30.9557 108.568 31.5L107.322 32.5098L114.412 41.5332C114.727 41.9199 115.143 42.3138 115.658 42.7148C116.188 43.1016 116.668 43.5169 117.098 43.9609C117.527 44.4049 117.742 44.9062 117.742 45.4648C117.742 46.1094 117.527 46.582 117.098 46.8828C116.668 47.1693 116.16 47.3125 115.572 47.3125H105.281C104.694 47.3125 104.221 47.1335 103.863 46.7754C103.505 46.4173 103.326 45.9447 103.326 45.3574C103.326 44.7988 103.484 44.3835 103.799 44.1113C104.128 43.8392 104.451 43.6172 104.766 43.4453C105.081 43.2591 105.238 43.0371 105.238 42.7793C105.238 42.5358 105.16 42.321 105.002 42.1348C104.859 41.9486 104.715 41.7767 104.572 41.6191L101.135 37.5156L98.6426 39.5352V40.8457C98.6426 41.304 98.6641 41.7552 98.707 42.1992C98.75 42.6432 98.972 43.0299 99.373 43.3594C99.7884 43.6745 100.132 43.9323 100.404 44.1328C100.676 44.3333 100.812 44.7415 100.812 45.3574C100.812 46.6608 100.161 47.3125 98.8574 47.3125Z" stroke="#09090B" stroke-width="4" mask="url(#path-2-outside-1_16_11)"/>
<path d="M148.637 40.1797C148.637 41.6406 148.314 42.8366 147.67 43.7676C147.025 44.6986 146.173 45.4219 145.113 45.9375C144.068 46.4531 142.929 46.8112 141.697 47.0117C140.465 47.2122 139.255 47.3125 138.066 47.3125H121.223C120.449 47.3125 119.826 47.1263 119.354 46.7539C118.895 46.3815 118.666 45.7871 118.666 44.9707C118.666 44.2546 118.809 43.7174 119.096 43.3594C119.396 42.987 119.74 42.6862 120.127 42.457C120.514 42.2279 120.85 41.9629 121.137 41.6621C121.438 41.347 121.588 40.8887 121.588 40.2871V24.6035C121.588 23.9733 121.438 23.5078 121.137 23.207C120.85 22.9062 120.514 22.6484 120.127 22.4336C119.74 22.2044 119.396 21.9108 119.096 21.5527C118.809 21.1947 118.666 20.6504 118.666 19.9199C118.666 19.1035 118.895 18.5091 119.354 18.1367C119.826 17.7643 120.449 17.5781 121.223 17.5781H134.35C135.753 17.5781 137.193 17.7285 138.668 18.0293C140.158 18.3301 141.533 18.8242 142.793 19.5117C144.053 20.1992 145.07 21.1159 145.844 22.2617C146.632 23.4076 147.025 24.8255 147.025 26.5156C147.025 28.3633 146.46 29.8171 145.328 30.877C144.211 31.9225 142.879 32.6745 141.332 33.1328C142.578 33.4049 143.753 33.8346 144.855 34.4219C145.973 34.9948 146.882 35.7539 147.584 36.6992C148.286 37.6445 148.637 38.8047 148.637 40.1797ZM132.287 21.8965H132.158V32.1445H132.932C134.55 32.1445 135.66 31.679 136.262 30.748C136.878 29.8171 137.186 28.6139 137.186 27.1387C137.186 25.5345 136.785 24.2598 135.982 23.3145C135.18 22.3691 133.949 21.8965 132.287 21.8965ZM138.281 39.7285C138.281 38.5827 137.945 37.6374 137.271 36.8926C136.613 36.1335 135.689 35.7539 134.5 35.7539H132.158V39.4277C132.158 40.5163 132.423 41.39 132.953 42.0488C133.483 42.6934 134.314 43.0156 135.445 43.0156C136.491 43.0156 137.221 42.7077 137.637 42.0918C138.066 41.4759 138.281 40.6882 138.281 39.7285Z" stroke="#09090B" stroke-width="4" mask="url(#path-2-outside-1_16_11)"/>
<path d="M182.604 33.9062C182.604 34.5365 182.46 35.0163 182.174 35.3457C181.887 35.6608 181.558 35.9186 181.186 36.1191C180.813 36.3197 180.484 36.5488 180.197 36.8066C179.911 37.0501 179.768 37.4154 179.768 37.9023V45.7656C179.768 47.3698 178.98 48.1719 177.404 48.1719C176.817 48.1719 176.301 47.9928 175.857 47.6348C175.428 47.291 175.012 46.9473 174.611 46.6035C174.225 46.2454 173.809 46.0664 173.365 46.0664C172.95 46.0664 172.499 46.1738 172.012 46.3887C171.539 46.6035 171.109 46.7969 170.723 46.9688C169.892 47.3555 169.054 47.6491 168.209 47.8496C167.364 48.0501 166.476 48.1504 165.545 48.1504C162.322 48.1504 159.587 47.4987 157.338 46.1953C155.089 44.8776 153.378 43.0443 152.203 40.6953C151.029 38.332 150.441 35.5749 150.441 32.4238C150.441 30.1895 150.857 28.1198 151.688 26.2148C152.518 24.2956 153.671 22.627 155.146 21.209C156.622 19.791 158.326 18.6882 160.26 17.9004C162.208 17.0983 164.285 16.6973 166.49 16.6973C167.335 16.6973 168.173 16.7546 169.004 16.8691C169.835 16.9694 170.651 17.1413 171.453 17.3848C171.868 17.4993 172.27 17.6139 172.656 17.7285C173.057 17.8431 173.473 17.9004 173.902 17.9004C174.275 17.9004 174.611 17.8073 174.912 17.6211C175.227 17.4206 175.535 17.2272 175.836 17.041C176.151 16.8548 176.495 16.7617 176.867 16.7617C177.598 16.7617 178.07 16.9909 178.285 17.4492C178.514 17.9076 178.715 18.4232 178.887 18.9961C179.016 19.4115 179.188 19.9486 179.402 20.6074C179.632 21.2663 179.861 21.9681 180.09 22.7129C180.333 23.4434 180.534 24.1309 180.691 24.7754C180.849 25.4199 180.928 25.9284 180.928 26.3008C180.928 26.9883 180.656 27.5039 180.111 27.8477C179.567 28.1771 178.987 28.3418 178.371 28.3418C177.741 28.3418 177.268 28.1842 176.953 27.8691C176.638 27.554 176.323 27.153 176.008 26.666C175.292 25.5775 174.597 24.6178 173.924 23.7871C173.251 22.9421 172.456 22.2832 171.539 21.8105C170.637 21.3379 169.469 21.1016 168.037 21.1016C166.662 21.1016 165.523 21.4095 164.621 22.0254C163.719 22.627 163.003 23.429 162.473 24.4316C161.957 25.4199 161.585 26.5013 161.355 27.6758C161.141 28.8359 161.033 29.9818 161.033 31.1133C161.033 31.944 161.083 32.7891 161.184 33.6484C161.298 34.4935 161.47 35.3171 161.699 36.1191C162.014 37.1934 162.487 38.2318 163.117 39.2344C163.762 40.2227 164.557 41.0319 165.502 41.6621C166.447 42.2923 167.529 42.6074 168.746 42.6074C169.262 42.6074 169.67 42.5215 169.971 42.3496C170.271 42.1634 170.422 41.7839 170.422 41.2109V37.9023C170.422 37.5299 170.35 37.2793 170.207 37.1504C170.064 37.0215 169.849 36.8711 169.562 36.6992C169.19 36.4701 168.782 36.248 168.338 36.0332C167.908 35.804 167.543 35.5319 167.242 35.2168C166.941 34.8874 166.791 34.4577 166.791 33.9277C166.791 33.1257 167.042 32.5599 167.543 32.2305C168.044 31.8867 168.66 31.7148 169.391 31.7148H180.025C180.756 31.7148 181.365 31.8796 181.852 32.209C182.353 32.5384 182.604 33.1042 182.604 33.9062Z" stroke="#09090B" stroke-width="4" mask="url(#path-2-outside-1_16_11)"/>
</g>
<defs>
<filter id="filter0_d_16_11" x="6" y="13" width="180.604" height="40.1719" filterUnits="userSpaceOnUse" color-interpolation-filters="sRGB">
<feFlood flood-opacity="0" result="BackgroundImageFix"/>
<feColorMatrix in="SourceAlpha" type="matrix" values="0 0 0 0 0 0 0 0 0 0 0 0 0 0 0 0 0 0 127 0" result="hardAlpha"/>
<feOffset dx="2" dy="3"/>
<feComposite in2="hardAlpha" operator="out"/>
<feColorMatrix type="matrix" values="0 0 0 0 0.0352941 0 0 0 0 0.0352941 0 0 0 0 0.0431373 0 0 0 1 0"/>
<feBlend mode="normal" in2="BackgroundImageFix" result="effect1_dropShadow_16_11"/>
<feBlend mode="normal" in="SourceGraphic" in2="effect1_dropShadow_16_11" result="shape"/>
</filter>
</defs>
</svg>
